<?xml version="1.0" standalone="no"?>
<!DOCTYPE svg PUBLIC "-//W3C//DTD SVG 20010904//EN"
 "http://www.w3.org/TR/2001/REC-SVG-20010904/DTD/svg10.dtd">
<svg version="1.0" xmlns="http://www.w3.org/2000/svg"
 width="690.000000pt" height="362.000000pt" viewBox="0 0 690.000000 362.000000"
 preserveAspectRatio="xMidYMid meet">

<g transform="translate(0.000000,362.000000) scale(0.100000,-0.100000)"
fill="#000000" stroke="none">
<path d="M430 1815 c0 -637 3 -805 13 -805 33 0 194 23 214 31 l23 9 0 415 c0
228 4 415 8 415 5 0 15 -21 24 -47 9 -27 50 -147 93 -268 42 -121 96 -275 119
-343 23 -67 47 -127 54 -134 8 -8 40 -8 129 1 65 7 124 15 131 17 9 3 12 163
12 759 l0 755 -125 0 -125 0 0 -440 c0 -262 -4 -440 -9 -440 -5 0 -15 17 -21
38 -16 50 -150 425 -211 590 -27 73 -49 134 -49 137 0 2 -9 29 -21 60 l-20 55
-120 0 -119 0 0 -805z"/>
<path d="M1500 1881 c0 -582 3 -740 13 -743 10 -4 311 15 597 39 l95 8 0 120
0 120 -120 -3 c-66 -2 -164 -8 -219 -13 -58 -6 -102 -7 -108 -1 -4 4 -7 89 -6
188 l3 179 167 3 c197 3 181 -10 176 147 l-3 100 -170 5 -170 5 0 165 0 165
222 3 c173 2 222 5 226 16 3 7 4 62 4 122 l-2 109 -352 3 -353 2 0 -739z"/>
<path d="M2372 2498 l3 -123 130 -5 130 -5 3 -577 c2 -538 3 -577 20 -581 9
-3 64 -2 122 1 l105 7 5 575 5 575 130 5 130 5 0 120 0 120 -393 3 -393 2 3
-122z"/>
<path d="M3320 1921 c0 -628 2 -699 16 -705 30 -11 219 -7 232 6 9 9 12 87 12
290 0 215 3 278 13 279 6 0 71 0 143 -1 72 -1 142 2 157 5 l27 7 0 119 0 119
-167 2 -168 3 -3 162 -2 163 222 2 223 3 3 123 3 122 -356 0 -355 0 0 -699z"/>
<path d="M4200 1916 c0 -663 1 -705 18 -710 9 -2 100 -7 202 -11 102 -3 243
-10 313 -16 99 -8 131 -8 143 2 12 9 14 35 12 123 l-3 111 -70 8 c-38 4 -135
11 -215 15 l-145 7 -3 588 -2 587 -125 0 -125 0 0 -704z"/>
<path d="M5098 2610 c-1 -5 -2 -334 0 -729 2 -609 4 -720 16 -724 8 -3 64 -9
125 -13 l111 -7 0 742 0 741 -124 0 c-74 0 -126 -4 -128 -10z"/>
<path d="M5580 2608 c0 -7 33 -98 74 -203 164 -419 206 -529 206 -541 0 -11
-38 -108 -77 -194 -12 -25 -35 -79 -53 -120 -18 -41 -38 -88 -45 -105 -98
-221 -126 -289 -128 -308 -2 -21 3 -23 113 -34 63 -6 122 -10 130 -7 9 2 40
61 69 131 88 208 119 273 129 273 6 0 23 -33 38 -72 15 -40 55 -143 88 -228
l61 -155 45 -7 c118 -17 232 -29 236 -25 5 4 -3 26 -37 104 -11 24 -19 47 -19
53 0 6 -4 18 -10 28 -5 9 -44 107 -86 217 -42 110 -95 245 -116 300 -22 55
-42 112 -45 127 -5 25 30 115 128 333 10 22 45 105 79 185 35 80 70 161 80
180 10 19 21 45 24 58 l7 22 -134 0 c-96 0 -137 -4 -144 -12 -5 -7 -45 -95
-87 -194 -82 -191 -92 -211 -99 -204 -3 3 -32 77 -66 165 -34 88 -70 179 -81
203 l-20 42 -130 0 c-97 0 -130 -3 -130 -12z"/>
</g>
</svg>
